<svg xmlns="http://www.w3.org/2000/svg" width="1600" height="1000" viewBox="0 0 1600 1000" fill="none">
  <rect width="1600" height="1000" rx="28" fill="#190F1E"/>
  <rect x="36" y="36" width="1528" height="928" rx="22" fill="#24112C" stroke="#472255"/>
  <rect x="72" y="72" width="1456" height="58" rx="12" fill="#311640"/>
  <circle cx="104" cy="101" r="10" fill="#F97316"/>
  <circle cx="138" cy="101" r="10" fill="#EC4899"/>
  <circle cx="172" cy="101" r="10" fill="#A855F7"/>
  <rect x="230" y="84" width="420" height="34" rx="8" fill="#45235A"/>
  <rect x="96" y="170" width="920" height="30" rx="8" fill="#3B1F4A"/>
  <rect x="96" y="220" width="840" height="16" rx="8" fill="#5B356D"/>
  <rect x="96" y="252" width="980" height="16" rx="8" fill="#5B356D"/>
  <rect x="96" y="298" width="920" height="16" rx="8" fill="#5B356D"/>
  <rect x="96" y="330" width="720" height="16" rx="8" fill="#5B356D"/>
  <rect x="96" y="376" width="1020" height="16" rx="8" fill="#5B356D"/>
  <rect x="96" y="408" width="760" height="16" rx="8" fill="#5B356D"/>
  <rect x="1090" y="170" width="430" height="360" rx="16" fill="#2D1739" stroke="#4A2D5C"/>
  <rect x="1122" y="206" width="220" height="24" rx="8" fill="#EC4899"/>
  <rect x="1122" y="250" width="360" height="14" rx="7" fill="#5B356D"/>
  <rect x="1122" y="278" width="318" height="14" rx="7" fill="#5B356D"/>
  <rect x="1122" y="324" width="170" height="20" rx="8" fill="#F97316"/>
  <rect x="1310" y="324" width="172" height="20" rx="8" fill="#A855F7"/>
  <rect x="1090" y="560" width="430" height="228" rx="16" fill="#2D1739" stroke="#4A2D5C"/>
  <rect x="1122" y="598" width="250" height="24" rx="8" fill="#EC4899"/>
  <rect x="1122" y="640" width="360" height="14" rx="7" fill="#5B356D"/>
  <rect x="1122" y="668" width="320" height="14" rx="7" fill="#5B356D"/>
  <rect x="1122" y="704" width="340" height="14" rx="7" fill="#5B356D"/>
  <text x="96" y="635" fill="#FBCFE8" font-family="Inter, Arial" font-size="22" font-weight="700">Instagram Transcript Result</text>
  <text x="96" y="668" fill="#F5D0FE" font-family="Inter, Arial" font-size="16">Replace this with your real reel transcript screenshot.</text>
</svg>
