<svg xmlns="http://www.w3.org/2000/svg" width="1600" height="1000" viewBox="0 0 1600 1000" fill="none">
  <rect width="1600" height="1000" rx="28" fill="#0B0E16"/>
  <rect x="36" y="36" width="1528" height="928" rx="22" fill="#101827" stroke="#263042"/>
  <rect x="72" y="72" width="1456" height="58" rx="12" fill="#172033"/>
  <circle cx="104" cy="101" r="10" fill="#EF4444"/>
  <circle cx="138" cy="101" r="10" fill="#F59E0B"/>
  <circle cx="172" cy="101" r="10" fill="#10B981"/>
  <rect x="230" y="84" width="380" height="34" rx="8" fill="#1F2A40"/>
  <rect x="96" y="170" width="920" height="30" rx="8" fill="#1E293B"/>
  <rect x="96" y="218" width="840" height="20" rx="8" fill="#334155"/>
  <rect x="96" y="270" width="1060" height="16" rx="8" fill="#334155"/>
  <rect x="96" y="302" width="780" height="16" rx="8" fill="#334155"/>
  <rect x="96" y="352" width="1060" height="16" rx="8" fill="#334155"/>
  <rect x="96" y="384" width="650" height="16" rx="8" fill="#334155"/>
  <rect x="96" y="436" width="1060" height="16" rx="8" fill="#334155"/>
  <rect x="96" y="468" width="870" height="16" rx="8" fill="#334155"/>
  <rect x="96" y="520" width="1060" height="16" rx="8" fill="#334155"/>
  <rect x="96" y="552" width="720" height="16" rx="8" fill="#334155"/>
  <rect x="1090" y="170" width="430" height="358" rx="16" fill="#121D2E" stroke="#243145"/>
  <rect x="1122" y="206" width="190" height="24" rx="8" fill="#22D3EE"/>
  <rect x="1122" y="248" width="360" height="14" rx="7" fill="#2E3D56"/>
  <rect x="1122" y="276" width="320" height="14" rx="7" fill="#2E3D56"/>
  <rect x="1122" y="324" width="170" height="20" rx="8" fill="#3B82F6"/>
  <rect x="1310" y="324" width="172" height="20" rx="8" fill="#A855F7"/>
  <rect x="1090" y="560" width="430" height="228" rx="16" fill="#121D2E" stroke="#243145"/>
  <rect x="1122" y="598" width="250" height="24" rx="8" fill="#22D3EE"/>
  <rect x="1122" y="640" width="360" height="14" rx="7" fill="#2E3D56"/>
  <rect x="1122" y="668" width="340" height="14" rx="7" fill="#2E3D56"/>
  <rect x="1122" y="704" width="320" height="14" rx="7" fill="#2E3D56"/>
  <text x="96" y="635" fill="#93C5FD" font-family="Inter, Arial" font-size="22" font-weight="700">TikTok Transcript Result</text>
  <text x="96" y="668" fill="#94A3B8" font-family="Inter, Arial" font-size="16">Replace this with your real screenshot: URL input → transcript output → copy/export actions.</text>
</svg>
