<svg width="1600" height="980" viewBox="0 0 1600 980" fill="none" xmlns="http://www.w3.org/2000/svg">
  <defs>
    <linearGradient id="brandGrad" x1="0" y1="0" x2="1" y2="1">
      <stop stop-color="#3B66CC"/>
      <stop offset="1" stop-color="#7A5CFF"/>
    </linearGradient>
    <linearGradient id="hubGrad" x1="0" y1="0" x2="1" y2="1">
      <stop stop-color="#3B66CC"/>
      <stop offset="1" stop-color="#7A5CFF"/>
    </linearGradient>
  </defs>

  <rect width="1600" height="980" fill="#F8FAFC"/>

  <text x="70" y="76" fill="#09090B" font-family="Inter, Segoe UI, Arial, sans-serif" font-size="30" font-weight="700">Transcripthub Logo Kit</text>
  <text x="70" y="112" fill="#475569" font-family="Inter, Segoe UI, Arial, sans-serif" font-size="20" font-weight="500">Import this SVG into Figma to edit text, spacing, and colors.</text>

  <rect x="60" y="152" width="1480" height="310" rx="24" fill="white" stroke="#E2E8F0"/>
  <text x="90" y="198" fill="#0F172A" font-family="Inter, Segoe UI, Arial, sans-serif" font-size="22" font-weight="700">Primary Horizontal</text>

  <g transform="translate(100 224)">
    <rect x="0" y="0" width="180" height="180" rx="44" fill="url(#brandGrad)"/>
    <path d="M42 47C42 36.507 50.507 28 61 28H118C128.493 28 137 36.507 137 47V112C137 122.493 128.493 131 118 131H83L60 154V131H61C50.507 131 42 122.493 42 112V47Z" fill="white"/>
    <rect x="56" y="49" width="56" height="6" rx="3" fill="#2A4FA3"/>
    <rect x="56" y="61" width="45" height="4.5" rx="2.25" fill="#A7B6DD"/>
    <rect x="56" y="72" width="35" height="4.5" rx="2.25" fill="#C1CCE8"/>
    <rect x="56" y="86" width="30" height="14" rx="4.5" fill="#0D1734"/>
    <rect x="89" y="86" width="23" height="14" rx="4.5" fill="#DDE5F8"/>
    <rect x="61" y="91" width="20" height="4" rx="2" fill="#2AD0FF"/>
    <rect x="94" y="91" width="13" height="4" rx="2" fill="#8EA4D9"/>

    <text x="220" y="100" fill="#09090B" font-family="Manrope, Inter, Segoe UI, Arial, sans-serif" font-size="76" font-weight="800" letter-spacing="-1.4">Transcript</text>
    <text x="576" y="100" fill="url(#hubGrad)" font-family="Manrope, Inter, Segoe UI, Arial, sans-serif" font-size="76" font-weight="800" letter-spacing="-1.4">hub</text>
    <text x="222" y="138" fill="#52525B" font-family="Inter, Segoe UI, Arial, sans-serif" font-size="24" font-weight="500">AI Video Transcript Generator</text>
  </g>

  <rect x="60" y="492" width="710" height="428" rx="24" fill="white" stroke="#E2E8F0"/>
  <text x="90" y="538" fill="#0F172A" font-family="Inter, Segoe UI, Arial, sans-serif" font-size="22" font-weight="700">Logomark</text>

  <g transform="translate(140 580)">
    <rect x="0" y="0" width="280" height="280" rx="70" fill="url(#brandGrad)"/>
    <path d="M66 72C66 58.193 77.193 47 91 47H189C202.807 47 214 58.193 214 72V184C214 197.807 202.807 209 189 209H138L99 248V209H91C77.193 209 66 197.807 66 184V72Z" fill="white"/>
    <rect x="87" y="76" width="102" height="10" rx="5" fill="#294FA4"/>
    <rect x="87" y="95" width="82" height="7" rx="3.5" fill="#A7B7DF"/>
    <rect x="87" y="111" width="64" height="7" rx="3.5" fill="#C0CDEA"/>
    <rect x="87" y="132" width="56" height="22" rx="7" fill="#0D1734"/>
    <rect x="149" y="132" width="40" height="22" rx="7" fill="#DCE5F8"/>
    <rect x="95" y="140" width="38" height="6" rx="3" fill="#2AD0FF"/>
    <rect x="157" y="140" width="23" height="6" rx="3" fill="#8EA4D9"/>
  </g>

  <rect x="830" y="492" width="710" height="428" rx="24" fill="#09090B" stroke="#27272A"/>
  <text x="860" y="538" fill="#FAFAFA" font-family="Inter, Segoe UI, Arial, sans-serif" font-size="22" font-weight="700">Dark Background Variant</text>

  <g transform="translate(870 586)">
    <rect x="0" y="0" width="132" height="132" rx="34" fill="url(#brandGrad)"/>
    <path d="M31 34C31 27.925 35.925 23 42 23H90C96.075 23 101 27.925 101 34V88C101 94.075 96.075 99 90 99H67L50 116V99H42C35.925 99 31 94.075 31 88V34Z" fill="white"/>
    <rect x="40" y="36" width="50" height="5" rx="2.5" fill="#294FA4"/>
    <rect x="40" y="45" width="40" height="3.5" rx="1.75" fill="#A7B7DF"/>
    <rect x="40" y="53" width="31" height="3.5" rx="1.75" fill="#C0CDEA"/>
    <rect x="40" y="63" width="27" height="11" rx="3.5" fill="#0D1734"/>
    <rect x="70" y="63" width="20" height="11" rx="3.5" fill="#DCE5F8"/>
    <rect x="44" y="67" width="18" height="3" rx="1.5" fill="#2AD0FF"/>
    <rect x="74" y="67" width="11" height="3" rx="1.5" fill="#8EA4D9"/>

    <text x="164" y="74" fill="#FAFAFA" font-family="Manrope, Inter, Segoe UI, Arial, sans-serif" font-size="54" font-weight="800" letter-spacing="-1">Transcript</text>
    <text x="418" y="74" fill="url(#hubGrad)" font-family="Manrope, Inter, Segoe UI, Arial, sans-serif" font-size="54" font-weight="800" letter-spacing="-1">hub</text>
    <text x="166" y="102" fill="#A1A1AA" font-family="Inter, Segoe UI, Arial, sans-serif" font-size="18" font-weight="500">AI Video Transcript Generator</text>
  </g>

  <text x="860" y="784" fill="#A1A1AA" font-family="Inter, Segoe UI, Arial, sans-serif" font-size="18" font-weight="500">Color tokens</text>
  <rect x="860" y="804" width="88" height="44" rx="12" fill="#3B66CC"/>
  <rect x="958" y="804" width="88" height="44" rx="12" fill="#7A5CFF"/>
  <rect x="1056" y="804" width="88" height="44" rx="12" fill="#09090B"/>
  <rect x="1154" y="804" width="88" height="44" rx="12" fill="#52525B"/>
  <rect x="1252" y="804" width="88" height="44" rx="12" fill="#FAFAFA" stroke="#D4D4D8"/>

  <text x="860" y="872" fill="#A1A1AA" font-family="Inter, Segoe UI, Arial, sans-serif" font-size="16" font-weight="500">#3B66CC</text>
  <text x="958" y="872" fill="#A1A1AA" font-family="Inter, Segoe UI, Arial, sans-serif" font-size="16" font-weight="500">#7A5CFF</text>
  <text x="1056" y="872" fill="#A1A1AA" font-family="Inter, Segoe UI, Arial, sans-serif" font-size="16" font-weight="500">#09090B</text>
  <text x="1154" y="872" fill="#A1A1AA" font-family="Inter, Segoe UI, Arial, sans-serif" font-size="16" font-weight="500">#52525B</text>
  <text x="1252" y="872" fill="#A1A1AA" font-family="Inter, Segoe UI, Arial, sans-serif" font-size="16" font-weight="500">#FAFAFA</text>
</svg>
