<svg xmlns="http://www.w3.org/2000/svg" width="1600" height="1000" viewBox="0 0 1600 1000" fill="none">
  <rect width="1600" height="1000" rx="28" fill="#0C1626"/>
  <rect x="48" y="48" width="1504" height="904" rx="22" fill="#102038" stroke="#2A4A71"/>
  <rect x="86" y="86" width="620" height="830" rx="18" fill="#122743" stroke="#2D4F79"/>
  <rect x="120" y="126" width="240" height="26" rx="8" fill="#3B82F6"/>
  <rect x="120" y="172" width="542" height="16" rx="8" fill="#325A8A"/>
  <rect x="120" y="202" width="508" height="16" rx="8" fill="#325A8A"/>
  <rect x="120" y="232" width="470" height="16" rx="8" fill="#325A8A"/>
  <rect x="120" y="276" width="542" height="16" rx="8" fill="#325A8A"/>
  <rect x="120" y="306" width="498" height="16" rx="8" fill="#325A8A"/>
  <rect x="120" y="336" width="460" height="16" rx="8" fill="#325A8A"/>
  <rect x="120" y="380" width="542" height="16" rx="8" fill="#325A8A"/>
  <rect x="120" y="410" width="510" height="16" rx="8" fill="#325A8A"/>
  <rect x="738" y="86" width="776" height="830" rx="18" fill="#122743" stroke="#2D4F79"/>
  <rect x="774" y="126" width="290" height="26" rx="8" fill="#22D3EE"/>
  <rect x="774" y="176" width="702" height="78" rx="12" fill="#17355A" stroke="#325A8A"/>
  <rect x="806" y="205" width="140" height="20" rx="8" fill="#3B82F6"/>
  <rect x="774" y="274" width="702" height="78" rx="12" fill="#17355A" stroke="#325A8A"/>
  <rect x="806" y="303" width="120" height="20" rx="8" fill="#06B6D4"/>
  <rect x="774" y="372" width="702" height="78" rx="12" fill="#17355A" stroke="#325A8A"/>
  <rect x="806" y="401" width="132" height="20" rx="8" fill="#6366F1"/>
  <rect x="774" y="492" width="340" height="54" rx="12" fill="#2563EB"/>
  <rect x="1136" y="492" width="340" height="54" rx="12" fill="#11253F" stroke="#325A8A"/>
  <rect x="774" y="572" width="702" height="306" rx="14" fill="#17355A" stroke="#325A8A"/>
  <rect x="806" y="610" width="640" height="16" rx="8" fill="#325A8A"/>
  <rect x="806" y="642" width="540" height="16" rx="8" fill="#325A8A"/>
  <rect x="806" y="674" width="612" height="16" rx="8" fill="#325A8A"/>
  <text x="120" y="840" fill="#BFDBFE" font-family="Inter, Arial" font-size="22" font-weight="700">Export Module Snapshot</text>
  <text x="120" y="872" fill="#93C5FD" font-family="Inter, Arial" font-size="16">Replace this with your real FB SRT/TXT export screenshot.</text>
</svg>
