<svg width="1200" height="760" viewBox="0 0 1200 760" fill="none" xmlns="http://www.w3.org/2000/svg">
  <defs>
    <linearGradient id="bg" x1="180" y1="80" x2="1050" y2="680" gradientUnits="userSpaceOnUse">
      <stop stop-color="#F0FDFA"/>
      <stop offset="0.5" stop-color="#EEF2FF"/>
      <stop offset="1" stop-color="#FDF2F8"/>
    </linearGradient>
    <linearGradient id="card1" x1="0" y1="0" x2="1" y2="1">
      <stop stop-color="#06B6D4"/>
      <stop offset="1" stop-color="#2563EB"/>
    </linearGradient>
    <linearGradient id="card2" x1="0" y1="0" x2="1" y2="1">
      <stop stop-color="#8B5CF6"/>
      <stop offset="1" stop-color="#EC4899"/>
    </linearGradient>
    <linearGradient id="card3" x1="0" y1="0" x2="1" y2="1">
      <stop stop-color="#14B8A6"/>
      <stop offset="1" stop-color="#22C55E"/>
    </linearGradient>
  </defs>

  <rect width="1200" height="760" rx="32" fill="url(#bg)"/>
  <circle cx="140" cy="96" r="78" fill="#67E8F9" fill-opacity="0.2"/>
  <circle cx="1090" cy="680" r="96" fill="#F9A8D4" fill-opacity="0.2"/>

  <rect x="120" y="170" width="300" height="420" rx="24" fill="white" stroke="#E2E8F0"/>
  <rect x="450" y="170" width="300" height="420" rx="24" fill="white" stroke="#E2E8F0"/>
  <rect x="780" y="170" width="300" height="420" rx="24" fill="white" stroke="#E2E8F0"/>

  <rect x="152" y="210" width="56" height="56" rx="14" fill="url(#card1)"/>
  <rect x="482" y="210" width="56" height="56" rx="14" fill="url(#card2)"/>
  <rect x="812" y="210" width="56" height="56" rx="14" fill="url(#card3)"/>

  <rect x="152" y="292" width="224" height="14" rx="7" fill="#94A3B8"/>
  <rect x="152" y="316" width="190" height="10" rx="5" fill="#CBD5E1"/>
  <rect x="152" y="336" width="210" height="10" rx="5" fill="#CBD5E1"/>
  <rect x="152" y="364" width="130" height="34" rx="10" fill="#E0F2FE"/>

  <rect x="482" y="292" width="224" height="14" rx="7" fill="#94A3B8"/>
  <rect x="482" y="316" width="190" height="10" rx="5" fill="#CBD5E1"/>
  <rect x="482" y="336" width="210" height="10" rx="5" fill="#CBD5E1"/>
  <rect x="482" y="364" width="130" height="34" rx="10" fill="#F3E8FF"/>

  <rect x="812" y="292" width="224" height="14" rx="7" fill="#94A3B8"/>
  <rect x="812" y="316" width="190" height="10" rx="5" fill="#CBD5E1"/>
  <rect x="812" y="336" width="210" height="10" rx="5" fill="#CBD5E1"/>
  <rect x="812" y="364" width="130" height="34" rx="10" fill="#DCFCE7"/>

  <path d="M420 302H450" stroke="#94A3B8" stroke-width="3" stroke-linecap="round"/>
  <path d="M750 302H780" stroke="#94A3B8" stroke-width="3" stroke-linecap="round"/>
  <path d="M442 294L450 302L442 310" stroke="#94A3B8" stroke-width="3" stroke-linecap="round" stroke-linejoin="round"/>
  <path d="M772 294L780 302L772 310" stroke="#94A3B8" stroke-width="3" stroke-linecap="round" stroke-linejoin="round"/>

  <rect x="152" y="446" width="224" height="106" rx="16" fill="#F8FAFC" stroke="#E2E8F0"/>
  <rect x="482" y="446" width="224" height="106" rx="16" fill="#F8FAFC" stroke="#E2E8F0"/>
  <rect x="812" y="446" width="224" height="106" rx="16" fill="#F8FAFC" stroke="#E2E8F0"/>
  <rect x="172" y="470" width="182" height="10" rx="5" fill="#CBD5E1"/>
  <rect x="172" y="490" width="140" height="10" rx="5" fill="#CBD5E1"/>
  <rect x="502" y="470" width="182" height="10" rx="5" fill="#CBD5E1"/>
  <rect x="502" y="490" width="140" height="10" rx="5" fill="#CBD5E1"/>
  <rect x="832" y="470" width="182" height="10" rx="5" fill="#CBD5E1"/>
  <rect x="832" y="490" width="140" height="10" rx="5" fill="#CBD5E1"/>
</svg>
