<svg width="1200" height="760" viewBox="0 0 1200 760" fill="none" xmlns="http://www.w3.org/2000/svg">
  <defs>
    <linearGradient id="bg" x1="120" y1="80" x2="1080" y2="700" gradientUnits="userSpaceOnUse">
      <stop stop-color="#EEF2FF"/>
      <stop offset="0.55" stop-color="#F8FAFC"/>
      <stop offset="1" stop-color="#ECFEFF"/>
    </linearGradient>
    <linearGradient id="top" x1="0" y1="0" x2="1" y2="1">
      <stop stop-color="#0EA5E9"/>
      <stop offset="1" stop-color="#8B5CF6"/>
    </linearGradient>
    <linearGradient id="mid" x1="0" y1="0" x2="1" y2="1">
      <stop stop-color="#F97316"/>
      <stop offset="1" stop-color="#EC4899"/>
    </linearGradient>
    <linearGradient id="bot" x1="0" y1="0" x2="1" y2="1">
      <stop stop-color="#14B8A6"/>
      <stop offset="1" stop-color="#22C55E"/>
    </linearGradient>
  </defs>

  <rect width="1200" height="760" rx="32" fill="url(#bg)"/>
  <circle cx="180" cy="120" r="96" fill="#38BDF8" fill-opacity="0.17"/>
  <circle cx="1020" cy="120" r="82" fill="#C4B5FD" fill-opacity="0.2"/>
  <circle cx="1060" cy="650" r="120" fill="#5EEAD4" fill-opacity="0.17"/>

  <rect x="180" y="144" width="840" height="474" rx="28" fill="white" stroke="#E2E8F0"/>

  <rect x="232" y="198" width="736" height="84" rx="18" fill="#F8FAFC" stroke="#E2E8F0"/>
  <rect x="256" y="226" width="42" height="28" rx="9" fill="url(#top)"/>
  <rect x="314" y="222" width="280" height="12" rx="6" fill="#94A3B8"/>
  <rect x="314" y="244" width="210" height="10" rx="5" fill="#CBD5E1"/>
  <rect x="778" y="220" width="164" height="40" rx="12" fill="#E0E7FF"/>

  <rect x="232" y="306" width="736" height="84" rx="18" fill="#F8FAFC" stroke="#E2E8F0"/>
  <rect x="256" y="334" width="42" height="28" rx="9" fill="url(#mid)"/>
  <rect x="314" y="330" width="280" height="12" rx="6" fill="#94A3B8"/>
  <rect x="314" y="352" width="210" height="10" rx="5" fill="#CBD5E1"/>
  <rect x="778" y="328" width="164" height="40" rx="12" fill="#FCE7F3"/>

  <rect x="232" y="414" width="736" height="84" rx="18" fill="#F8FAFC" stroke="#E2E8F0"/>
  <rect x="256" y="442" width="42" height="28" rx="9" fill="url(#bot)"/>
  <rect x="314" y="438" width="280" height="12" rx="6" fill="#94A3B8"/>
  <rect x="314" y="460" width="210" height="10" rx="5" fill="#CBD5E1"/>
  <rect x="778" y="436" width="164" height="40" rx="12" fill="#DCFCE7"/>

  <rect x="232" y="534" width="736" height="50" rx="14" fill="#111827"/>
  <rect x="254" y="553" width="206" height="12" rx="6" fill="#334155"/>
  <rect x="480" y="553" width="164" height="12" rx="6" fill="#475569"/>
  <rect x="662" y="553" width="144" height="12" rx="6" fill="#64748B"/>
  <rect x="822" y="546" width="124" height="26" rx="10" fill="#22D3EE"/>
</svg>
