<svg xmlns="http://www.w3.org/2000/svg" viewBox="0 0 128 128">
  <defs>
    <linearGradient id="grad" x1="0%" y1="0%" x2="100%" y2="100%">
      <stop offset="0%" style="stop-color:#E1306C"/>
      <stop offset="100%" style="stop-color:#F77737"/>
    </linearGradient>
  </defs>
  <rect width="128" height="128" rx="24" fill="url(#grad)"/>
  <path d="M96 38h-8l-4 8h-10l4-8h-8c-4.4 0-8 3.6-8 8v36c0 4.4 3.6 8 8 8h32c4.4 0 8-3.6 8-8V46c0-4.4-3.6-8-8-8zm-4 40H40V54h52v24zm4-28H36V40c0-2.2 1.8-4 4-4h44c2.2 0 4 1.8 4 4v10h-12V50h-8v4h-4V50h-8v4h-4V50h-8v4h-4z" fill="white"/>
  <circle cx="64" cy="64" r="16" fill="none" stroke="white" stroke-width="4"/>
  <circle cx="96" cy="32" r="6" fill="white"/>
</svg>
